<mxfile host="app.diagrams.net" modified="2024-05-14T01:27:23.010Z" agent="Mozilla/5.0 (Windows NT 10.0; Win64; x64) AppleWebKit/537.36 (KHTML, like Gecko) Chrome/124.0.0.0 Safari/537.36" etag="bz9AFJsrT-GMBu9QR5G6" version="24.4.0" type="github">
  <diagram name="PÃ¡gina-1" id="IzlPJKKZIlCBfpaYn3o2">
    <mxGraphModel dx="1202" dy="434" grid="1" gridSize="10" guides="1" tooltips="1" connect="1" arrows="1" fold="1" page="1" pageScale="1" pageWidth="827" pageHeight="1169" math="0" shadow="0">
      <root>
        <mxCell id="0" />
        <mxCell id="1" parent="0" />
        <mxCell id="o70e0O958L7tmHIjedJz-3" value="" style="edgeStyle=orthogonalEdgeStyle;rounded=0;orthogonalLoop=1;jettySize=auto;html=1;" edge="1" parent="1" source="o70e0O958L7tmHIjedJz-1" target="o70e0O958L7tmHIjedJz-2">
          <mxGeometry relative="1" as="geometry" />
        </mxCell>
        <mxCell id="o70e0O958L7tmHIjedJz-1" value="INICIO" style="rounded=1;whiteSpace=wrap;html=1;" vertex="1" parent="1">
          <mxGeometry x="369" y="40" width="90" height="40" as="geometry" />
        </mxCell>
        <mxCell id="o70e0O958L7tmHIjedJz-5" value="" style="edgeStyle=orthogonalEdgeStyle;rounded=0;orthogonalLoop=1;jettySize=auto;html=1;" edge="1" parent="1" source="o70e0O958L7tmHIjedJz-2" target="o70e0O958L7tmHIjedJz-4">
          <mxGeometry relative="1" as="geometry" />
        </mxCell>
        <mxCell id="o70e0O958L7tmHIjedJz-2" value="s1" style="shape=parallelogram;perimeter=parallelogramPerimeter;whiteSpace=wrap;html=1;fixedSize=1;" vertex="1" parent="1">
          <mxGeometry x="364" y="120" width="100" height="40" as="geometry" />
        </mxCell>
        <mxCell id="o70e0O958L7tmHIjedJz-7" value="" style="edgeStyle=orthogonalEdgeStyle;rounded=0;orthogonalLoop=1;jettySize=auto;html=1;" edge="1" parent="1" source="o70e0O958L7tmHIjedJz-4" target="o70e0O958L7tmHIjedJz-6">
          <mxGeometry relative="1" as="geometry" />
        </mxCell>
        <mxCell id="o70e0O958L7tmHIjedJz-4" value="i=0" style="whiteSpace=wrap;html=1;" vertex="1" parent="1">
          <mxGeometry x="371" y="210" width="86" height="40" as="geometry" />
        </mxCell>
        <mxCell id="o70e0O958L7tmHIjedJz-9" value="" style="edgeStyle=orthogonalEdgeStyle;rounded=0;orthogonalLoop=1;jettySize=auto;html=1;" edge="1" parent="1" source="o70e0O958L7tmHIjedJz-6" target="o70e0O958L7tmHIjedJz-8">
          <mxGeometry relative="1" as="geometry" />
        </mxCell>
        <mxCell id="o70e0O958L7tmHIjedJz-11" value="" style="edgeStyle=orthogonalEdgeStyle;rounded=0;orthogonalLoop=1;jettySize=auto;html=1;" edge="1" parent="1" source="o70e0O958L7tmHIjedJz-6" target="o70e0O958L7tmHIjedJz-10">
          <mxGeometry relative="1" as="geometry" />
        </mxCell>
        <mxCell id="o70e0O958L7tmHIjedJz-13" value="" style="edgeStyle=orthogonalEdgeStyle;rounded=0;orthogonalLoop=1;jettySize=auto;html=1;" edge="1" parent="1" source="o70e0O958L7tmHIjedJz-6" target="o70e0O958L7tmHIjedJz-12">
          <mxGeometry relative="1" as="geometry" />
        </mxCell>
        <mxCell id="o70e0O958L7tmHIjedJz-6" value="i&amp;lt;20" style="rhombus;whiteSpace=wrap;html=1;" vertex="1" parent="1">
          <mxGeometry x="374" y="290" width="80" height="80" as="geometry" />
        </mxCell>
        <mxCell id="o70e0O958L7tmHIjedJz-8" value="FIN" style="rounded=1;whiteSpace=wrap;html=1;" vertex="1" parent="1">
          <mxGeometry x="520" y="310" width="94" height="40" as="geometry" />
        </mxCell>
        <mxCell id="o70e0O958L7tmHIjedJz-10" value="++i" style="whiteSpace=wrap;html=1;" vertex="1" parent="1">
          <mxGeometry x="220" y="310" width="86" height="40" as="geometry" />
        </mxCell>
        <mxCell id="o70e0O958L7tmHIjedJz-15" value="" style="edgeStyle=orthogonalEdgeStyle;rounded=0;orthogonalLoop=1;jettySize=auto;html=1;" edge="1" parent="1" source="o70e0O958L7tmHIjedJz-12" target="o70e0O958L7tmHIjedJz-14">
          <mxGeometry relative="1" as="geometry" />
        </mxCell>
        <mxCell id="o70e0O958L7tmHIjedJz-17" value="" style="edgeStyle=orthogonalEdgeStyle;rounded=0;orthogonalLoop=1;jettySize=auto;html=1;" edge="1" parent="1" source="o70e0O958L7tmHIjedJz-12" target="o70e0O958L7tmHIjedJz-16">
          <mxGeometry relative="1" as="geometry" />
        </mxCell>
        <mxCell id="o70e0O958L7tmHIjedJz-12" value="s1[i]==1?" style="rhombus;whiteSpace=wrap;html=1;" vertex="1" parent="1">
          <mxGeometry x="374" y="450" width="80" height="80" as="geometry" />
        </mxCell>
        <mxCell id="o70e0O958L7tmHIjedJz-14" value="&quot;Om-nom-nom :P&quot;" style="whiteSpace=wrap;html=1;" vertex="1" parent="1">
          <mxGeometry x="211" y="465" width="104" height="50" as="geometry" />
        </mxCell>
        <mxCell id="o70e0O958L7tmHIjedJz-19" value="" style="edgeStyle=orthogonalEdgeStyle;rounded=0;orthogonalLoop=1;jettySize=auto;html=1;" edge="1" parent="1" source="o70e0O958L7tmHIjedJz-16" target="o70e0O958L7tmHIjedJz-18">
          <mxGeometry relative="1" as="geometry" />
        </mxCell>
        <mxCell id="o70e0O958L7tmHIjedJz-23" value="" style="edgeStyle=orthogonalEdgeStyle;rounded=0;orthogonalLoop=1;jettySize=auto;html=1;entryX=0;entryY=0.25;entryDx=0;entryDy=0;" edge="1" parent="1" source="o70e0O958L7tmHIjedJz-16" target="o70e0O958L7tmHIjedJz-10">
          <mxGeometry relative="1" as="geometry">
            <mxPoint x="140" y="320" as="targetPoint" />
            <Array as="points">
              <mxPoint x="120" y="650" />
              <mxPoint x="120" y="320" />
            </Array>
          </mxGeometry>
        </mxCell>
        <mxCell id="o70e0O958L7tmHIjedJz-16" value="s1[i]==0" style="rhombus;whiteSpace=wrap;html=1;" vertex="1" parent="1">
          <mxGeometry x="374" y="610" width="80" height="80" as="geometry" />
        </mxCell>
        <mxCell id="o70e0O958L7tmHIjedJz-21" value="" style="edgeStyle=orthogonalEdgeStyle;rounded=0;orthogonalLoop=1;jettySize=auto;html=1;" edge="1" parent="1" source="o70e0O958L7tmHIjedJz-18" target="o70e0O958L7tmHIjedJz-20">
          <mxGeometry relative="1" as="geometry" />
        </mxCell>
        <mxCell id="o70e0O958L7tmHIjedJz-18" value="&quot;No cake :(&quot;" style="whiteSpace=wrap;html=1;" vertex="1" parent="1">
          <mxGeometry x="509" y="625" width="116" height="50" as="geometry" />
        </mxCell>
        <mxCell id="o70e0O958L7tmHIjedJz-20" value="FIN" style="rounded=1;whiteSpace=wrap;html=1;" vertex="1" parent="1">
          <mxGeometry x="680" y="635" width="93" height="30" as="geometry" />
        </mxCell>
        <mxCell id="o70e0O958L7tmHIjedJz-24" value="" style="endArrow=none;html=1;rounded=0;entryX=0;entryY=0.5;entryDx=0;entryDy=0;" edge="1" parent="1" target="o70e0O958L7tmHIjedJz-14">
          <mxGeometry width="50" height="50" relative="1" as="geometry">
            <mxPoint x="120" y="490" as="sourcePoint" />
            <mxPoint x="190" y="480" as="targetPoint" />
            <Array as="points" />
          </mxGeometry>
        </mxCell>
        <mxCell id="o70e0O958L7tmHIjedJz-25" value="SI" style="text;html=1;align=center;verticalAlign=middle;resizable=0;points=[];autosize=1;strokeColor=none;fillColor=none;" vertex="1" parent="1">
          <mxGeometry x="420" y="390" width="30" height="30" as="geometry" />
        </mxCell>
        <mxCell id="o70e0O958L7tmHIjedJz-26" value="SI" style="text;html=1;align=center;verticalAlign=middle;resizable=0;points=[];autosize=1;strokeColor=none;fillColor=none;" vertex="1" parent="1">
          <mxGeometry x="334" y="465" width="30" height="30" as="geometry" />
        </mxCell>
        <mxCell id="o70e0O958L7tmHIjedJz-27" value="NO" style="text;html=1;align=center;verticalAlign=middle;resizable=0;points=[];autosize=1;strokeColor=none;fillColor=none;" vertex="1" parent="1">
          <mxGeometry x="459" y="300" width="40" height="30" as="geometry" />
        </mxCell>
        <mxCell id="o70e0O958L7tmHIjedJz-28" value="SI" style="text;html=1;align=center;verticalAlign=middle;resizable=0;points=[];autosize=1;strokeColor=none;fillColor=none;" vertex="1" parent="1">
          <mxGeometry x="464" y="620" width="30" height="30" as="geometry" />
        </mxCell>
        <mxCell id="o70e0O958L7tmHIjedJz-29" value="NO" style="text;html=1;align=center;verticalAlign=middle;resizable=0;points=[];autosize=1;strokeColor=none;fillColor=none;" vertex="1" parent="1">
          <mxGeometry x="374" y="555" width="40" height="30" as="geometry" />
        </mxCell>
        <mxCell id="o70e0O958L7tmHIjedJz-30" value="NO" style="text;html=1;align=center;verticalAlign=middle;resizable=0;points=[];autosize=1;strokeColor=none;fillColor=none;" vertex="1" parent="1">
          <mxGeometry x="334" y="650" width="40" height="30" as="geometry" />
        </mxCell>
      </root>
    </mxGraphModel>
  </diagram>
</mxfile>
